<svg xmlns="http://www.w3.org/2000/svg" width="32.029" height="32.031" viewBox="0 0 32.029 32.031">
  <g id="global" transform="translate(-0.016 0.002)">
    <g id="Group_1" data-name="Group 1" transform="translate(0.016 -0.002)">
      <path id="Path_2" data-name="Path 2" d="M29.085,6.769a.267.267,0,0,0,0-.031c-.04-.057-.089-.106-.13-.162Q28.5,5.965,28,5.4c-.092-.1-.183-.2-.277-.306q-.516-.553-1.082-1.054c-.07-.062-.135-.126-.2-.187A16.038,16.038,0,0,0,23.4,1.8c-.044-.023-.089-.042-.134-.065a15.914,15.914,0,0,0-1.488-.663c-.114-.041-.219-.08-.327-.114Q20.775.717,20.078.534C19.941.5,19.8.459,19.664.427,19.206.321,18.749.24,18.281.173,18.139.153,18,.125,17.856.108a15.043,15.043,0,0,0-3.63,0c-.143.017-.283.045-.425.065-.468.066-.93.148-1.383.254-.14.032-.277.07-.414.106q-.7.183-1.373.427c-.114.039-.219.078-.327.114a15.9,15.9,0,0,0-1.488.663c-.045.023-.09.042-.134.065A16.042,16.042,0,0,0,5.635,3.853c-.07.061-.135.125-.2.187A14.883,14.883,0,0,0,4.347,5.094c-.094.1-.185.2-.277.306q-.5.564-.95,1.176c-.041.056-.09.105-.13.162a.26.26,0,0,0-.014.031,15.916,15.916,0,0,0,0,18.489.249.249,0,0,0,.014.031c.04.057.089.106.13.162q.447.611.95,1.176c.092.1.183.2.277.306q.517.553,1.082,1.054c.07.062.135.126.2.187a16.038,16.038,0,0,0,3.037,2.051c.044.023.089.042.134.065a15.913,15.913,0,0,0,1.488.663c.114.041.219.08.327.114q.676.244,1.373.427c.137.037.275.074.414.106.458.106.915.188,1.383.254.142.021.281.048.425.065a15.043,15.043,0,0,0,3.63,0c.143-.017.283-.045.425-.065.468-.066.93-.148,1.383-.254.14-.032.277-.07.414-.106q.7-.183,1.373-.427c.114-.039.219-.078.327-.114a15.9,15.9,0,0,0,1.488-.663c.045-.023.09-.042.134-.065a16.041,16.041,0,0,0,3.037-2.051c.07-.061.135-.125.2-.187a14.568,14.568,0,0,0,1.082-1.054c.094-.1.185-.2.277-.306q.5-.565.95-1.176c.041-.056.09-.105.13-.162a.259.259,0,0,0,.014-.031A15.916,15.916,0,0,0,29.085,6.769ZM27.779,8.934a13.616,13.616,0,0,1,1.93,5.935H22.855a21.353,21.353,0,0,0-.641-4.038A20.563,20.563,0,0,0,27.779,8.934ZM18.948,2.6c.064.015.126.035.19.05a12.314,12.314,0,0,1,1.213.343c.061.021.12.045.18.066q.59.206,1.161.458c.066.031.132.065.2.1q.546.26,1.066.562l.229.138q.494.3.961.647c.08.058.16.114.239.178a10.44,10.44,0,0,1,.877.736c.073.066.149.132.221.2.293.278.572.572.842.877.034.04.071.077.105.114a19.194,19.194,0,0,1-4.88,1.568,29.1,29.1,0,0,0-3.08-6.113C18.628,2.548,18.791,2.564,18.948,2.6ZM11.5,14.87a19.093,19.093,0,0,1,.629-3.662,32.79,32.79,0,0,0,3.907.229,32.864,32.864,0,0,0,3.91-.235,19.058,19.058,0,0,1,.626,3.667Zm9.072,2.289a19.093,19.093,0,0,1-.629,3.662,33.49,33.49,0,0,0-7.817,0,19.063,19.063,0,0,1-.626-3.662ZM16.037,3.028a27.637,27.637,0,0,1,3.189,5.95,30.286,30.286,0,0,1-3.189.169,30.515,30.515,0,0,1-3.186-.171A27.855,27.855,0,0,1,16.037,3.028ZM5.749,6.949c.269-.3.549-.6.842-.877.072-.069.148-.134.221-.2q.423-.386.877-.736c.079-.061.159-.114.239-.178q.467-.343.961-.647l.229-.138q.521-.3,1.066-.562c.066-.031.132-.065.2-.1q.57-.257,1.161-.458c.059-.022.114-.046.18-.066.4-.133.8-.243,1.213-.343.064-.015.126-.035.191-.049.157-.034.319-.05.478-.079a29.1,29.1,0,0,0-3.082,6.114,19.193,19.193,0,0,1-4.88-1.568C5.678,7.025,5.715,6.989,5.749,6.949ZM4.294,8.934a20.559,20.559,0,0,0,5.564,1.9,21.353,21.353,0,0,0-.64,4.038H2.363A13.617,13.617,0,0,1,4.294,8.934Zm0,14.159a13.616,13.616,0,0,1-1.93-5.935H9.218A21.353,21.353,0,0,0,9.859,21.2,20.558,20.558,0,0,0,4.294,23.094Zm8.832,6.336c-.064-.015-.126-.035-.19-.05a12.314,12.314,0,0,1-1.213-.343c-.061-.021-.12-.045-.18-.066q-.59-.206-1.161-.458c-.066-.031-.132-.065-.2-.1q-.546-.26-1.066-.562l-.229-.138q-.494-.3-.961-.647c-.08-.058-.16-.114-.239-.178a10.44,10.44,0,0,1-.877-.736c-.073-.066-.149-.132-.221-.2-.293-.278-.572-.572-.842-.877-.034-.04-.071-.077-.105-.114a19.194,19.194,0,0,1,4.88-1.568,29.1,29.1,0,0,0,3.08,6.113C13.445,29.48,13.282,29.464,13.126,29.43ZM16.037,29a27.638,27.638,0,0,1-3.189-5.95,29.79,29.79,0,0,1,6.376,0h0A27.849,27.849,0,0,1,16.037,29Zm10.287-3.92c-.269.3-.549.6-.842.877-.072.069-.148.134-.221.2q-.423.387-.877.736c-.079.061-.159.12-.239.178q-.467.343-.961.647l-.229.138q-.52.3-1.066.562c-.066.031-.132.065-.2.1q-.57.257-1.161.458c-.059.022-.114.046-.18.066-.4.133-.8.243-1.213.343-.064.015-.126.035-.191.049-.157.034-.319.05-.478.079a29.093,29.093,0,0,0,3.08-6.113,19.193,19.193,0,0,1,4.88,1.568C26.395,25,26.358,25.039,26.324,25.079Zm1.456-1.985a20.559,20.559,0,0,0-5.564-1.9,21.352,21.352,0,0,0,.64-4.038H29.71A13.618,13.618,0,0,1,27.779,23.094Z" transform="translate(-0.016 0.002)" fill="#fff"/>
    </g>
  </g>
</svg>
